<?xml version="1.0" encoding="utf-8"?>
<!-- Generator: Adobe Illustrator 25.4.1, SVG Export Plug-In . SVG Version: 6.00 Build 0)  -->
<svg version="1.1" id="Capa_1" xmlns="http://www.w3.org/2000/svg" xmlns:xlink="http://www.w3.org/1999/xlink" x="0px" y="0px"
	 viewBox="0 0 442 580" style="enable-background:new 0 0 442 580;" xml:space="preserve">
<g id="_x23_f4f4f4ff">
</g>
<g id="_x23_f0f0eeff">
</g>
<g id="_x23_f6f8f7ff">
</g>
<g id="_x23_f9fbfaff">
</g>
<g id="_x23_fdfefdff">
</g>
<g id="_x23_fdfefeff">
</g>
<g id="_x23_fbfbfbff">
</g>
<g id="_x23_f2f2f2ff">
</g>
<g id="_x23_f1f1f1ff">
</g>
<g id="_x23_f7f7f7ff">
</g>
<g>
	<path d="M97.1,349.1c0.9-3.4,2.3-6.6,4-9.7c0.8-1.5,2.2-3,2.8-4.5c0.3-0.8,0.4-1.4,0.3-1.8c-0.3-1.5-2.9-0.5-4.3,0.6
		c-1.9,1.5-3.8,2.9-5.7,4.5c-4.2,3.6-8.2,7.5-11.6,11.9c-7.8,9.8-13,21.8-12.8,34.5c0.1,8.2,2.4,16.3,6,23.7c0,0,25-11,20.2-39.3
		C95,362.5,95.2,355.5,97.1,349.1z"/>
	<path d="M172,400.8c-0.4-0.1-1,0-1.8,0.3c-1.6,0.6-3,2-4.5,2.8c-3.1,1.7-6.3,3-9.7,4c-6.4,1.8-13.4,2.1-19.9,1
		c-28.2-4.7-39.3,20.2-39.3,20.2c7.4,3.6,15.5,5.9,23.7,6c12.7,0.2,24.7-4.9,34.5-12.8c4.3-3.5,8.3-7.4,11.9-11.6
		c1.6-1.8,3-3.8,4.5-5.7C172.5,403.8,173.5,401.1,172,400.8z"/>
	<path d="M149.6,464.3c0,0,32.3-5.2,14-33.8C130.5,437.8,149.6,464.3,149.6,464.3z"/>
	<path d="M281.1,156.2c0.4,0.1,1,0,1.8-0.3c1.6-0.6,3-2,4.5-2.8c3.1-1.7,6.3-3,9.7-4c6.4-1.8,13.4-2.1,19.9-1
		c28.2,4.7,39.3-20.2,39.3-20.2c-7.4-3.6-15.5-5.9-23.7-6c-12.7-0.2-24.7,4.9-34.5,12.8c-4.3,3.5-8.3,7.4-11.9,11.6
		c-1.6,1.8-3,3.8-4.5,5.7C280.6,153.3,279.6,155.9,281.1,156.2z"/>
	<path d="M303.5,92.7c0,0-32.3,5.2-14,33.8C322.6,119.2,303.5,92.7,303.5,92.7z"/>
	<path d="M356,207.9c-0.9,3.4-2.3,6.6-4,9.7c-0.8,1.5-2.2,3-2.8,4.5c-0.3,0.8-0.4,1.4-0.3,1.8c0.3,1.5,2.9,0.5,4.3-0.6
		c1.9-1.5,3.8-2.9,5.7-4.5c4.2-3.6,8.2-7.5,11.6-11.9c7.8-9.8,13-21.8,12.8-34.5c-0.1-8.2-2.4-16.3-6-23.7c0,0-25,11-20.2,39.3
		C358.1,194.5,357.8,201.5,356,207.9z"/>
	<path d="M317,409c-6.5,1.1-13.4,0.8-19.9-1c-3.4-0.9-6.6-2.3-9.7-4c-1.5-0.8-3-2.2-4.5-2.8c-0.8-0.3-1.4-0.4-1.8-0.3
		c-1.5,0.3-0.5,2.9,0.6,4.3c1.5,1.9,2.9,3.8,4.5,5.7c3.6,4.2,7.5,8.2,11.9,11.6c9.8,7.8,21.8,13,34.5,12.8c8.2-0.1,16.3-2.4,23.7-6
		C356.2,429.3,345.2,404.3,317,409z"/>
	<path d="M289.5,430.5c-18.3,28.6,14,33.8,14,33.8S322.6,437.8,289.5,430.5z"/>
	<path d="M358.9,338.1c-1.8-1.6-3.8-3-5.7-4.5c-1.4-1.1-4-2-4.3-0.6c-0.1,0.4,0,1,0.3,1.8c0.6,1.6,2,3,2.8,4.5c1.7,3.1,3,6.3,4,9.7
		c1.8,6.4,2.1,13.4,1,19.9c-4.7,28.2,20.2,39.3,20.2,39.3c3.6-7.4,5.9-15.5,6-23.7c0.2-12.7-4.9-24.7-12.8-34.5
		C367,345.6,363.1,341.7,358.9,338.1z"/>
	<path d="M94.2,218.9c1.8,1.6,3.8,3,5.7,4.5c1.4,1.1,4,2,4.3,0.6c0.1-0.4,0-1-0.3-1.8c-0.6-1.6-2-3-2.8-4.5c-1.7-3.1-3-6.3-4-9.7
		c-1.8-6.4-2.1-13.4-1-19.9c4.7-28.2-20.2-39.3-20.2-39.3c-3.6,7.4-5.9,15.5-6,23.7c-0.2,12.7,4.9,24.7,12.8,34.5
		C86,211.4,90,215.3,94.2,218.9z"/>
	<path d="M136.1,148c6.5-1.1,13.4-0.8,19.9,1c3.4,0.9,6.6,2.3,9.7,4c1.5,0.8,3,2.2,4.5,2.8c0.8,0.3,1.4,0.4,1.8,0.3
		c1.5-0.3,0.5-2.9-0.6-4.3c-1.5-1.9-2.9-3.8-4.5-5.7c-3.6-4.2-7.5-8.2-11.9-11.6c-9.8-7.8-21.8-13-34.5-12.8
		c-8.2,0.1-16.3,2.4-23.7,6C96.8,127.8,107.9,152.7,136.1,148z"/>
	<path d="M163.6,126.5c18.3-28.6-14-33.8-14-33.8S130.5,119.2,163.6,126.5z"/>
	<path d="M70.3,250.2c3.8-5.3,8.9-10.1,14.8-13.3c3-1.7,6.3-3.1,9.6-4c1.6-0.5,3.6-0.5,5.2-1.2c0.8-0.3,1.3-0.7,1.5-1
		c0.8-1.3-1.7-2.4-3.4-2.7c-2.4-0.3-4.8-0.6-7.2-0.8c-5.5-0.4-11.1-0.4-16.6,0.2c-12.5,1.4-24.6,6.2-33.4,15.4
		c-5.7,5.9-9.8,13.2-12.5,21C28.2,263.6,53.7,273.5,70.3,250.2z"/>
	<path d="M74.6,215.6c-7.3-33.1-33.8-14-33.8-14S46,233.8,74.6,215.6z"/>
	<path d="M74.2,329.8c5.5,0.6,11.1,0.6,16.6,0.2c2.4-0.2,4.8-0.5,7.2-0.8c1.8-0.2,4.3-1.4,3.4-2.7c-0.2-0.3-0.7-0.7-1.5-1
		c-1.5-0.6-3.6-0.7-5.2-1.2c-3.4-1-6.6-2.3-9.6-4c-5.8-3.3-11-8-14.8-13.3c-16.6-23.3-42.1-13.4-42.1-13.4c2.7,7.8,6.8,15.1,12.5,21
		C49.6,323.5,61.7,328.3,74.2,329.8z"/>
	<path d="M40.8,355.5c0,0,26.5,19.1,33.8-14C46,323.2,40.8,355.5,40.8,355.5z"/>
	<path d="M424.8,263.6c-2.7-7.8-6.8-15.1-12.5-21c-8.9-9.1-20.9-14-33.4-15.4c-5.5-0.6-11.1-0.6-16.6-0.2c-2.4,0.2-4.8,0.5-7.2,0.8
		c-1.8,0.2-4.3,1.4-3.4,2.7c0.2,0.3,0.7,0.7,1.5,1c1.5,0.6,3.6,0.7,5.2,1.2c3.4,1,6.6,2.3,9.6,4c5.8,3.3,11,8,14.8,13.3
		C399.4,273.5,424.8,263.6,424.8,263.6z"/>
	<path d="M412.3,201.6c0,0-26.5-19.1-33.8,14C407.1,233.8,412.3,201.6,412.3,201.6z"/>
	<path d="M382.8,306.8c-3.8,5.3-8.9,10.1-14.8,13.3c-3,1.7-6.3,3.1-9.6,4c-1.6,0.5-3.6,0.5-5.2,1.2c-0.8,0.3-1.3,0.7-1.5,1
		c-0.8,1.3,1.7,2.4,3.4,2.7c2.4,0.3,4.8,0.6,7.2,0.8c5.5,0.4,11.1,0.4,16.6-0.2c12.5-1.4,24.6-6.2,33.4-15.4
		c5.7-5.9,9.8-13.2,12.5-21C424.8,293.4,399.4,283.6,382.8,306.8z"/>
	<path d="M378.5,341.5c7.3,33.1,33.8,14,33.8,14S407.1,323.2,378.5,341.5z"/>
	<path d="M198.2,434.7c-5.3-3.8-10.1-8.9-13.3-14.8c-1.7-3-3.1-6.3-4-9.6c-0.5-1.6-0.5-3.6-1.2-5.2c-0.3-0.8-0.7-1.3-1-1.5
		c-1.3-0.8-2.4,1.7-2.7,3.4c-0.3,2.4-0.6,4.8-0.8,7.2c-0.4,5.5-0.4,11.1,0.2,16.6c1.4,12.5,6.2,24.6,15.4,33.4
		c5.9,5.7,13.2,9.8,21,12.5C211.6,476.8,221.5,451.3,198.2,434.7z"/>
	<path d="M277.1,407c-0.2-1.8-1.4-4.3-2.7-3.4c-0.3,0.2-0.7,0.7-1,1.5c-0.6,1.5-0.7,3.6-1.2,5.2c-1,3.4-2.3,6.6-4,9.6
		c-3.3,5.8-8,11-13.3,14.8c-23.3,16.6-13.4,42.1-13.4,42.1c7.8-2.7,15.1-6.8,21-12.5c9.1-8.9,14-20.9,15.4-33.4
		c0.6-5.5,0.6-11.1,0.2-16.6C277.8,411.8,277.4,409.4,277.1,407z"/>
	<path d="M176,150c0.2,1.8,1.4,4.3,2.7,3.4c0.3-0.2,0.7-0.7,1-1.5c0.6-1.5,0.7-3.6,1.2-5.2c1-3.4,2.3-6.6,4-9.6
		c3.3-5.8,8-11,13.3-14.8c23.3-16.6,13.4-42.1,13.4-42.1c-7.8,2.7-15.1,6.8-21,12.5c-9.1,8.9-14,20.9-15.4,33.4
		c-0.6,5.5-0.6,11.1-0.2,16.6C175.3,145.2,175.6,147.6,176,150z"/>
	<path d="M254.9,122.3c5.3,3.8,10.1,8.9,13.3,14.8c1.7,3,3.1,6.3,4,9.6c0.5,1.6,0.5,3.6,1.2,5.2c0.3,0.8,0.7,1.3,1,1.5
		c1.3,0.8,2.4-1.7,2.7-3.4c0.3-2.4,0.6-4.8,0.8-7.2c0.4-5.5,0.4-11.1-0.2-16.6c-1.4-12.5-6.2-24.6-15.4-33.4
		c-5.9-5.7-13.2-9.8-21-12.5C241.4,80.2,231.6,105.7,254.9,122.3z"/>
	<path d="M340.6,164.4c-91.9,16.6-98.9,98.9-98.9,98.9S324,256.3,340.6,164.4z"/>
	<path d="M272.8,278.5c0,0,34.4,76.3,114.3,0C307.1,202.2,272.8,278.5,272.8,278.5z"/>
	<path d="M241.7,293.6c0,0,7.1,82.3,98.9,98.9C324,300.7,241.7,293.6,241.7,293.6z"/>
	<path d="M226.5,324.7c0,0-76.3,34.4,0,114.3C302.9,359.1,226.5,324.7,226.5,324.7z"/>
	<path d="M211.4,293.6c0,0-82.3,7.1-98.9,98.9C204.3,376,211.4,293.6,211.4,293.6z"/>
	<path d="M180.3,278.5c0,0-34.4-76.3-114.3,0C145.9,354.9,180.3,278.5,180.3,278.5z"/>
	<path d="M112.5,164.4c16.6,91.9,98.9,98.9,98.9,98.9S204.3,181,112.5,164.4z"/>
	<path d="M226.5,232.3c0,0,76.3-34.4,0-114.3C150.2,197.9,226.5,232.3,226.5,232.3z"/>
</g>
</svg>
