<?xml version="1.0" encoding="utf-8"?>
<!-- Generator: Adobe Illustrator 25.4.1, SVG Export Plug-In . SVG Version: 6.00 Build 0)  -->
<svg version="1.1" id="Capa_1" xmlns="http://www.w3.org/2000/svg" xmlns:xlink="http://www.w3.org/1999/xlink" x="0px" y="0px"
	 viewBox="0 0 328 295" style="enable-background:new 0 0 328 295;" xml:space="preserve">
<style type="text/css">
	.st0{fill:#1C1C1B;}
</style>
<g id="_x23_ffffffff">
</g>
<g>
	<path class="st0" d="M236,31.5c2.9,14.9,5.7,29.8,9.1,44.7c0.4,1.7-0.5,4.1-2.5,4.4c-4.4,0.6-11,0.7-15.4,2
		c-17.1,5.1-12.6,9.5-9.9,20.7c1.5,6.4,6.8,17.3,4.7,24c-1.8,5.6-8.6,8.7-16,10.9c0.6,0.1,1.3,0.1,1.9,0.1l-0.3,5.1
		c-5-0.3-10.1-0.9-15.2-1.9c-1.8,0.4-3.4,0.8-4.7,1.2c-4.8,1.5-6.7-5.9-2-7.4c5.9-1.9,15.3-3.1,20.5-6.7c7.3,0,9.5-3.6,6.8-10.8
		c-0.5-2.1-1-4.1-1.5-6.2c-1.3-7-6.6-17-5.3-24.1c2.5-13.5,19.1-13,31.2-13.5c-2.8-13.6-5.4-27.3-7.1-41.2L236,31.5z"/>
	<path class="st0" d="M278.2,160.7c25-40.6,22.4-98.8-23.4-121.6c4.8,15.7,12.5,34.3,12.2,50.1c0,1.2-0.6,2.5-1.8,3.1
		c-6.7,3.6-16,2.6-22.2,6.6c-11.3,7.3-6.6,28.8-6.4,39.8c0,1.3-1,2.9-2.3,3.1c-9.1,1.4-17.9,2-26.7,1.5l0.3-5.1
		c6.1,0.2,12-0.5,16.3-3.7c8-6,5.3-11.1,4.9-21.3c-0.2-4.9-2.1-13.4,1.8-17.6c8.6-9,25,1.2,27.4-16.2c1.5-10.7-8.4-30.7-11.2-41.4
		c-0.3-1.1-0.1-2,0.4-2.8c-1.3-1.9,0-5.1,2.9-4.3c50.2,12.8,61.7,74.3,43.6,116.4c-23.1,53.6-79.8,91.3-132.9,110.3
		c-1.7,0.6-3.1,0-3.9-1.1c-0.5,0.1-1.1,0-1.6-0.2c-2.4-1.1-4.8-2.2-7.2-3.3l3.3-6c2.2,1.3,4.5,2.5,6.7,3.7c0.2-0.1,0.4-0.3,0.6-0.4
		C205.2,232.6,251.7,203.8,278.2,160.7z"/>
	<path class="st0" d="M56.3,178.3c-21.8-29.5-43.2-72.6-24.7-108.7c15-29.3,50.7-46.1,82.6-36.8c25.4,7.4,43.8,27.8,51.6,52.1
		c9.4-29.4,32.9-52.4,63.9-60.1c0.7-0.2,1.4-0.1,2,0.1c1.4-0.3,3.1,0.3,3.4,1.9c0.3,1.6,0.6,3.2,0.9,4.7l-5.9,1.2
		c-32.9,9.4-56.7,36.2-60.6,70.5c-0.6,4.9-7.3,5-7.8,0c-3.1-34.1-31-65.8-67-65.2C56.9,38.5,28.4,72,33.2,109
		c8.2,63.3,66,108.7,118.4,138.1l-3.3,6C112.4,236.1,79.9,210.3,56.3,178.3z"/>
</g>
</svg>
